<?xml version="1.0" encoding="utf-8"?>
<!-- Generator: Adobe Illustrator 27.0.0, SVG Export Plug-In . SVG Version: 6.00 Build 0)  -->
<svg version="1.1" id="Layer_1" xmlns="http://www.w3.org/2000/svg" xmlns:xlink="http://www.w3.org/1999/xlink" x="0px" y="0px"
	 viewBox="0 0 125.3 22" style="enable-background:new 0 0 125.3 22;" xml:space="preserve">
<style type="text/css">
	.st0{fill:#005893;}
</style>
<path class="st0" d="M3.8,0c-0.6,0-1,0.5-1,1c0,1.7,1,2.6,1.7,3.1l0,0c0.7,0.6,1,0.9,1,1.6c0,0.6,0.5,1,1,1s1-0.5,1-1
	c0-1.7-1-2.6-1.7-3.1l0,0C5.1,2,4.8,1.7,4.8,1C4.8,0.5,4.4,0,3.8,0z M1.4,8.2C0.6,8.2,0,8.9,0,9.6v8.2C0,20.2,1.8,22,4.1,22h8.2
	c2.3,0,4.1-1.8,4.1-4.1h0.7c2.7,0,4.8-2.2,4.8-4.8s-2.2-4.8-4.8-4.8h-2.1H1.4z M16.5,11h0.7c1.1,0,2.1,0.9,2.1,2.1s-0.9,2.1-2.1,2.1
	h-0.7V11z M9.6,1c0-0.6-0.5-1-1-1s-1,0.5-1,1c0,1.7,1,2.6,1.7,3.1l0,0c0.7,0.6,1,0.9,1,1.6c0,0.6,0.5,1,1,1c0.6,0,1-0.5,1-1
	c0-1.7-1-2.6-1.7-3.1l0,0C9.9,2,9.6,1.7,9.6,1z"/>
<path class="st0" d="M42.6,9.9c0.8,0,1.4-0.3,1.8-1C44.9,8.2,45,7.5,45,6.7c0-1.1-0.4-1.9-1.1-2.6c-0.7-0.6-1.7-1-2.9-1
	c-1.6,0-3.1,0.5-4.4,1.4c-1.3,0.9-1.9,2-1.9,3.1c0,0.7,0.4,1.2,1.1,1.5c0.2,0.1,0.3,0.2,0.3,0.2v0.4c0,0.2-0.3,0.4-0.9,0.6
	c-0.6,0.3-1,0.4-1.2,0.4c-0.3,0-0.6-0.2-0.9-0.7c-0.3-0.5-0.5-1-0.5-1.5c0-0.9,0.4-1.9,1.1-2.9c0.8-1,1.8-1.8,3.2-2.4
	c1.4-0.6,3-0.9,4.8-0.9c1.9,0,3.5,0.4,4.7,1.2c1.2,0.8,1.8,1.8,1.8,3.1c0,1.9-1.3,3.2-4,3.8c2.1,0.6,3.1,1.9,3.1,3.8
	c0,1.4-0.5,2.6-1.6,3.6c-1,1-2.3,1.5-3.7,1.5c-0.6,0-1.2-0.1-1.6-0.4c-0.4-0.3-0.6-0.6-0.6-0.9c0-0.2,0.1-0.6,0.4-1
	c0.3-0.4,0.5-0.6,0.8-0.6c0.3,0,0.5,0.4,0.6,1.1c0,0.6,0.2,0.9,0.6,0.9c0.5,0,1-0.6,1.4-1.7c0.4-1.2,0.6-2.3,0.6-3.5
	c0-1.4-0.5-2.2-1.5-2.4L42.6,9.9z M43,5.3c-0.5,0.4-0.8,0.9-1,1.4c-0.2,0.5-0.4,1.5-0.6,3c-0.2,1.5-0.4,2.8-0.7,3.8
	c-0.3,1-0.7,2-1.4,2.9c-0.7,0.9-1.5,1.6-2.5,2.1c-1,0.5-2.1,0.8-3.3,0.8c-1,0-1.8-0.2-2.4-0.7c-0.5-0.4-0.8-1.1-0.8-1.9
	c0-0.3,0-0.5,0.1-0.7c0.4-0.3,0.8-0.6,1.3-0.9c0.5-0.3,0.8-0.4,1-0.4c0.3,0,0.4,0.2,0.4,0.6c0,0.1,0,0.3-0.1,0.7
	C33,16.6,33,16.8,33,16.9c0,1,0.4,1.4,1.2,1.4c0.8,0,1.6-0.5,2.2-1.6c0.6-1.1,1.1-2.7,1.3-4.9c0.3-2.2,0.6-3.7,1.1-4.5
	c0.5-0.8,1.1-1.5,1.8-1.9C41.4,5,42,4.8,42.4,4.8C42.6,4.8,42.8,5,43,5.3z M57.3,16.4c-2,1.9-3.5,2.9-4.5,2.9
	c-0.5,0-0.9-0.2-1.2-0.6c-0.3-0.4-0.5-0.9-0.5-1.5c0-1.1,0.6-2.6,1.8-4.4c-0.6,0.3-1.2,0.5-1.9,0.6c-0.5,0.9-1.3,1.9-2.4,3h-0.3
	v-1.1c0.6-0.6,1.2-1.3,1.7-2c-0.7-0.3-1-0.7-1-1.3c0-0.6,0.2-1.2,0.6-1.9c0.4-0.7,1-1,1.7-1c0.6,0,0.9,0.3,0.9,0.9
	c0,0.5-0.2,1.2-0.5,2.1c1.3-0.1,2.4-1.1,3.4-3l1.1,0l-1.1,3c-0.5,1.3-0.7,2.1-0.9,2.6c-0.1,0.5-0.2,0.9-0.2,1.2
	c0,0.3,0.1,0.6,0.2,0.8c0.2,0.2,0.4,0.3,0.6,0.3c0.3,0,0.6-0.1,0.8-0.3c0.3-0.2,0.8-0.7,1.7-1.6V16.4z M66,16.4
	c-1,1-1.9,1.7-2.7,2.2c-0.8,0.5-1.7,0.7-2.6,0.7c-1.1,0-1.9-0.3-2.6-1c-0.6-0.7-1-1.6-1-2.7c0-1.7,0.6-3.2,1.7-4.5
	c1.1-1.3,2.4-2,3.8-2c0.7,0,1.3,0.2,1.7,0.6s0.7,0.9,0.7,1.5c0,1.6-1.7,2.9-5.2,3.9c0.3,1.5,1.1,2.3,2.4,2.3c0.5,0,1-0.1,1.5-0.4
	c0.5-0.3,1.2-0.9,2.1-1.9V16.4z M59.9,14.2c2-0.6,3-1.6,3-3.1c0-0.8-0.3-1.1-0.8-1.1c-0.5,0-1,0.4-1.5,1.2
	C60.1,12,59.9,13,59.9,14.2z M82.3,16.4c-0.4,0.3-0.8,0.5-1.1,0.7c-0.4,0.1-0.7,0.2-0.9,0.2c-0.6,0-1.1-0.2-1.7-0.7
	c-1.4,1.8-2.9,2.6-4.4,2.6c-1.1,0-1.9-0.6-2.4-1.8c-1,1.2-2.2,1.8-3.4,1.8c-0.8,0-1.4-0.3-1.9-0.8c-0.5-0.5-0.7-1.2-0.7-2.2
	c0-1,0.1-2,0.4-3c0.3-1,0.7-2.3,1.3-3.7L70.7,9l-0.9,2.6c-0.7,2.3-1.1,3.8-1.1,4.7c0,0.4,0.1,0.7,0.3,1c0.2,0.3,0.4,0.4,0.7,0.4
	c0.6,0,1.2-0.5,1.9-1.5c0-1.2,0.2-2.5,0.7-3.8l1-2.8L76.4,9l-1.3,4.1c-0.4,1.3-0.6,2.3-0.6,3.1c0,0.5,0.1,0.8,0.3,1.1
	c0.2,0.3,0.5,0.4,0.8,0.4c0.4,0,0.8-0.2,1.2-0.5c0.4-0.3,0.8-0.8,1.2-1.4c-0.4-0.8-0.6-1.5-0.6-2.4c0-1.2,0.3-2.2,0.9-3.1
	c0.6-0.9,1.2-1.4,2-1.4c0.5,0,0.8,0.4,0.8,1.1c0,1.6-0.6,3.5-1.9,5.6c0.4,0.4,0.8,0.6,1.2,0.6c0.5,0,1.2-0.4,2-1.3V16.4z M91.3,2.5
	c-1.8,1.7-3.1,3.5-3.9,5.4c-0.8,1.9-1.2,3.8-1.2,5.5c0,1.1,0.2,2,0.7,2.7c0.5,0.7,1.1,1,1.8,1c1.5,0,3.2-1.4,4.8-4.1
	c1.7-2.7,2.5-5.2,2.5-7.5c0-0.7-0.1-1.2-0.3-1.6c-0.2-0.4-0.5-0.6-0.9-0.6c-0.7,0-1.3,0.5-1.9,1.5c-0.6,1-0.9,1.9-0.9,2.7
	c0,0.6,0.3,0.9,0.8,1c0.2,0,0.3,0.1,0.3,0.3c0,0.3-0.2,0.7-0.5,1c-0.4,0.3-0.7,0.5-1.1,0.5c-0.5,0-0.9-0.2-1.2-0.6
	c-0.3-0.4-0.5-1-0.5-1.6c0-1.4,0.5-2.7,1.5-3.9c1-1.3,2.1-1.9,3.1-1.9c0.7,0,1.3,0.3,1.7,0.9c0.4,0.6,0.6,1.4,0.6,2.4
	c0,1.9-0.5,4-1.6,6.2c-1.1,2.2-2.4,4-4,5.4c-1.6,1.4-3.1,2.1-4.6,2.1c-1.1,0-2-0.5-2.8-1.4c-0.7-0.9-1.1-2.1-1.1-3.6
	c0-1.6,0.3-3.2,0.9-4.8c0.6-1.6,1.5-3,2.5-4.3c1-1.3,1.8-2.1,2.4-2.4c0.6-0.3,1.5-0.5,2.6-0.5V2.5z M109,16.4
	c-1.8,1.9-3.4,2.9-4.6,2.9c-0.5,0-0.9-0.2-1.3-0.6c-0.3-0.4-0.5-0.9-0.5-1.5c0-0.8,0.3-2.1,1-3.8c0.4-0.9,0.6-1.5,0.6-1.8
	s-0.1-0.4-0.3-0.4c-0.1,0-0.3,0.1-0.4,0.2c-0.2,0.1-0.4,0.3-0.6,0.5c-0.2,0.2-0.4,0.4-0.7,0.7c-0.2,0.2-0.4,0.5-0.7,0.8l-0.7,0.8
	c-0.3,0.4-0.5,0.7-0.5,1.1c-0.1,0.7-0.2,1.3-0.2,1.8c0,0.4,0,1,0,1.7l-2.6,0.6c-0.1-1.1-0.1-1.8-0.1-2.4c0-1.3,0.1-2.4,0.4-3.6
	c0.3-1.1,0.8-2.4,1.4-3.8l2.9-0.6c-0.6,1.6-1,2.9-1.2,3.8c1.3-1.4,2.3-2.4,3-3c0.8-0.6,1.4-0.8,2-0.8c0.4,0,0.7,0.2,1,0.5
	c0.3,0.3,0.4,0.7,0.4,1.1c0,0.8-0.3,2-1,3.7c-0.5,1.2-0.7,1.9-0.7,2.3c0,0.5,0.2,0.7,0.6,0.7c0.6,0,1.5-0.8,2.8-2.3V16.4z
	 M117.8,16.4c-1,1-1.9,1.7-2.7,2.2c-0.8,0.5-1.7,0.7-2.6,0.7c-1.1,0-1.9-0.3-2.6-1c-0.6-0.7-1-1.6-1-2.7c0-1.7,0.6-3.2,1.7-4.5
	c1.1-1.3,2.4-2,3.8-2c0.7,0,1.3,0.2,1.7,0.6c0.4,0.4,0.7,0.9,0.7,1.5c0,1.6-1.7,2.9-5.2,3.9c0.3,1.5,1.1,2.3,2.4,2.3
	c0.5,0,1-0.1,1.5-0.4c0.5-0.3,1.2-0.9,2.1-1.9V16.4z M111.6,14.2c2-0.6,3-1.6,3-3.1c0-0.8-0.3-1.1-0.8-1.1c-0.5,0-1,0.4-1.5,1.2
	C111.9,12,111.6,13,111.6,14.2z"/>
</svg>
